<svg width="26" height="27" viewBox="0 0 26 27" fill="none" xmlns="http://www.w3.org/2000/svg">
<g clip-path="url(#clip0_198_946)">
<path d="M10.0859 22.5C10.0859 22.894 9.9691 23.2792 9.75019 23.6068C9.53129 23.9344 9.22015 24.1898 8.85613 24.3405C8.4921 24.4913 8.09154 24.5308 7.70509 24.4539C7.31865 24.377 6.96367 24.1873 6.68506 23.9087C6.40645 23.6301 6.21671 23.2751 6.13984 22.8887C6.06297 22.5022 6.10242 22.1016 6.25321 21.7376C6.40399 21.3736 6.65934 21.0625 6.98695 20.8436C7.31456 20.6247 7.69973 20.5078 8.09375 20.5078C8.62211 20.5078 9.12883 20.7177 9.50244 21.0913C9.87605 21.4649 10.0859 21.9716 10.0859 22.5ZM18.4531 20.5078C18.0591 20.5078 17.6739 20.6247 17.3463 20.8436C17.0187 21.0625 16.7634 21.3736 16.6126 21.7376C16.4618 22.1016 16.4223 22.5022 16.4992 22.8887C16.5761 23.2751 16.7658 23.6301 17.0444 23.9087C17.323 24.1873 17.678 24.377 18.0645 24.4539C18.4509 24.5308 18.8515 24.4913 19.2155 24.3405C19.5795 24.1898 19.8907 23.9344 20.1096 23.6068C20.3285 23.2792 20.4453 22.894 20.4453 22.5C20.4453 21.9716 20.2354 21.4649 19.8618 21.0913C19.4882 20.7177 18.9815 20.5078 18.4531 20.5078ZM23.58 8.50787L20.8617 17.3432C20.6881 17.9146 20.335 18.4148 19.8546 18.7695C19.3742 19.1243 18.7923 19.3147 18.1951 19.3125H8.38561C7.77989 19.3105 7.19112 19.1123 6.70751 18.7476C6.22391 18.3829 5.87151 17.8713 5.70312 17.2894L2.29748 5.36719H1.32031C1.0033 5.36719 0.699264 5.24125 0.475099 5.01709C0.250934 4.79292 0.125 4.48889 0.125 4.17188C0.125 3.85486 0.250934 3.55083 0.475099 3.32666C0.699264 3.1025 1.0033 2.97656 1.32031 2.97656H2.5973C3.02995 2.9779 3.4505 3.11948 3.79586 3.38008C4.14123 3.64067 4.39278 4.00622 4.51279 4.42189L5.23895 6.96094H22.4375C22.6246 6.96092 22.809 7.00481 22.976 7.08908C23.1431 7.17335 23.288 7.29564 23.3991 7.44612C23.5102 7.59659 23.5845 7.77105 23.6159 7.95546C23.6473 8.13987 23.635 8.32908 23.58 8.50787ZM20.8188 9.35156H5.92127L8.00211 16.633C8.02593 16.7163 8.07626 16.7896 8.14546 16.8417C8.21466 16.8938 8.29897 16.922 8.38561 16.9219H18.1951C18.2804 16.922 18.3635 16.8948 18.4322 16.8443C18.5008 16.7937 18.5515 16.7225 18.5766 16.641L20.8188 9.35156Z" fill="black"/>
</g>
<defs>
<clipPath id="clip0_198_946">
<rect width="25.5" height="25.5" fill="white" transform="translate(0.125 0.984375)"/>
</clipPath>
</defs>
</svg>
