<svg width="27" height="27" viewBox="0 0 27 27" fill="none" xmlns="http://www.w3.org/2000/svg">
<path d="M13.5 2.97656C11.3723 2.97656 9.2924 3.6075 7.52328 4.78958C5.75417 5.97166 4.37532 7.6518 3.56108 9.61754C2.74685 11.5833 2.53381 13.7463 2.9489 15.8331C3.36399 17.9199 4.38858 19.8368 5.89308 21.3413C7.39759 22.8458 9.31445 23.8704 11.4013 24.2855C13.4881 24.7006 15.6511 24.4875 17.6168 23.6733C19.5826 22.8591 21.2627 21.4802 22.4448 19.7111C23.6269 17.942 24.2578 15.8621 24.2578 13.7344C24.2547 10.8822 23.1202 8.14774 21.1034 6.13095C19.0866 4.11415 16.3522 2.97973 13.5 2.97656ZM8.67592 20.5646C9.23082 19.8059 9.95686 19.1887 10.7951 18.7633C11.6333 18.3379 12.56 18.1161 13.5 18.1161C14.44 18.1161 15.3667 18.3379 16.2049 18.7633C17.0431 19.1887 17.7692 19.8059 18.3241 20.5646C16.9142 21.5645 15.2285 22.1015 13.5 22.1015C11.7716 22.1015 10.0858 21.5645 8.67592 20.5646ZM10.7109 12.9375C10.7109 12.3859 10.8745 11.8466 11.181 11.388C11.4874 10.9293 11.923 10.5718 12.4327 10.3607C12.9423 10.1496 13.5031 10.0944 14.0441 10.202C14.5851 10.3096 15.0821 10.5753 15.4722 10.9653C15.8622 11.3554 16.1279 11.8524 16.2355 12.3934C16.3431 12.9344 16.2879 13.4952 16.0768 14.0048C15.8657 14.5145 15.5082 14.9501 15.0495 15.2565C14.5909 15.563 14.0516 15.7266 13.5 15.7266C12.7603 15.7266 12.0509 15.4327 11.5278 14.9097C11.0048 14.3866 10.7109 13.6772 10.7109 12.9375ZM20.0742 18.9081C19.2995 17.9227 18.312 17.1252 17.1856 16.5752C17.9034 15.8483 18.3903 14.9253 18.5849 13.9223C18.7795 12.9193 18.6731 11.8812 18.2792 10.9385C17.8852 9.99586 17.2213 9.19075 16.3709 8.62447C15.5205 8.0582 14.5217 7.75605 13.5 7.75605C12.4783 7.75605 11.4795 8.0582 10.6291 8.62447C9.77872 9.19075 9.11479 9.99586 8.72085 10.9385C8.32691 11.8812 8.22054 12.9193 8.41514 13.9223C8.60973 14.9253 9.09658 15.8483 9.81446 16.5752C8.68804 17.1252 7.70054 17.9227 6.92579 18.9081C5.95265 17.6745 5.34652 16.1918 5.1768 14.6297C5.00707 13.0677 5.2806 11.4894 5.96608 10.0756C6.65156 8.66177 7.72128 7.46952 9.05279 6.63533C10.3843 5.80114 11.9238 5.35872 13.495 5.35872C15.0663 5.35872 16.6058 5.80114 17.9373 6.63533C19.2688 7.46952 20.3385 8.66177 21.024 10.0756C21.7094 11.4894 21.983 13.0677 21.8133 14.6297C21.6435 16.1918 21.0374 17.6745 20.0643 18.9081H20.0742Z" fill="black"/>
</svg>
