<svg width="26" height="27" viewBox="0 0 26 27" fill="none" xmlns="http://www.w3.org/2000/svg">
<path d="M23.377 22.4512L18.6466 17.7188C20.0649 15.8705 20.7271 13.5519 20.4988 11.2333C20.2705 8.91477 19.1688 6.76986 17.4172 5.2337C15.6656 3.69755 13.3953 2.88517 11.0668 2.96138C8.73827 3.03759 6.52591 3.99667 4.87852 5.64406C3.23112 7.29146 2.27204 9.50381 2.19583 11.8323C2.11963 14.1609 2.932 16.4312 4.46815 18.1828C6.00431 19.9344 8.14922 21.036 10.4678 21.2643C12.7863 21.4926 15.1049 20.8305 16.9532 19.4121L21.6876 24.1475C21.7988 24.2587 21.9308 24.3469 22.0761 24.4071C22.2214 24.4673 22.3771 24.4982 22.5343 24.4982C22.6916 24.4982 22.8473 24.4673 22.9925 24.4071C23.1378 24.3469 23.2698 24.2587 23.381 24.1475C23.4922 24.0364 23.5804 23.9044 23.6406 23.7591C23.7007 23.6138 23.7317 23.4581 23.7317 23.3009C23.7317 23.1436 23.7007 22.9879 23.6406 22.8426C23.5804 22.6974 23.4922 22.5654 23.381 22.4542L23.377 22.4512ZM4.60164 12.1406C4.60164 10.801 4.99889 9.49139 5.74317 8.37751C6.48744 7.26362 7.54531 6.39545 8.783 5.88279C10.0207 5.37012 11.3826 5.23598 12.6965 5.49734C14.0104 5.75869 15.2173 6.4038 16.1646 7.35108C17.1119 8.29836 17.757 9.50528 18.0184 10.8192C18.2797 12.1331 18.1456 13.495 17.6329 14.7327C17.1203 15.9704 16.2521 17.0283 15.1382 17.7725C14.0243 18.5168 12.7147 18.9141 11.3751 18.9141C9.57922 18.9122 7.85744 18.198 6.58757 16.9281C5.31771 15.6583 4.60349 13.9365 4.60164 12.1406Z" fill="black" fill-opacity="0.4"/>
</svg>
